<?xml version="1.0" encoding="UTF-8"?>
<svg id="Layer_1" data-name="Layer 1" xmlns="http://www.w3.org/2000/svg" viewBox="0 0 9.78 11.44">
  <defs>
    <style>
      .cls-1 {
        fill: #f3eace;
      }

      .cls-1, .cls-2 {
        stroke-width: 0px;
      }

      .cls-2 {
        fill: #98732b;
      }
    </style>
  </defs>
  <g>
    <polygon class="cls-2" points="4.3 8.1 1.54 10.88 4.14 7.94 4.3 8.1 4.3 8.1"/>
    <polygon class="cls-2" points="4.12 7.93 .75 9.93 4 7.74 4.12 7.93 4.12 7.93"/>
    <polygon class="cls-2" points="3.99 7.72 .23 8.82 3.92 7.5 3.99 7.72 3.99 7.72"/>
    <polygon class="cls-2" points="3.92 7.48 0 7.62 3.91 7.26 3.92 7.48 3.92 7.48"/>
    <polygon class="cls-2" points="3.91 7.24 .08 6.39 3.95 7.01 3.91 7.24 3.91 7.24"/>
    <polygon class="cls-2" points="3.96 6.99 .46 5.22 4.05 6.79 3.96 6.99 3.96 6.99"/>
    <polygon class="cls-2" points="4.06 6.77 1.11 4.18 4.21 6.6 4.06 6.77 4.06 6.77"/>
    <polygon class="cls-2" points="4.22 6.58 2.01 3.34 4.41 6.45 4.22 6.58 4.22 6.58"/>
    <polygon class="cls-2" points="4.42 6.44 3.09 2.75 4.64 6.35 4.42 6.44 4.42 6.44"/>
    <polygon class="cls-2" points="5.15 6.35 6.69 2.75 5.36 6.44 5.15 6.35 5.15 6.35"/>
    <polygon class="cls-2" points="5.37 6.45 7.77 3.34 5.56 6.58 5.37 6.45 5.37 6.45"/>
    <polygon class="cls-2" points="5.57 6.6 8.67 4.18 5.72 6.77 5.57 6.6 5.57 6.6"/>
    <polygon class="cls-2" points="5.73 6.79 9.32 5.22 5.83 6.99 5.73 6.79 5.73 6.79"/>
    <polygon class="cls-2" points="5.83 7.01 9.7 6.39 5.87 7.24 5.83 7.01 5.83 7.01"/>
    <polygon class="cls-2" points="5.88 7.26 9.78 7.62 5.86 7.48 5.88 7.26 5.88 7.26"/>
    <polygon class="cls-2" points="5.86 7.5 9.55 8.82 5.79 7.72 5.86 7.5 5.86 7.5"/>
    <polygon class="cls-2" points="5.78 7.74 9.03 9.93 5.66 7.93 5.78 7.74 5.78 7.74"/>
    <polygon class="cls-2" points="5.64 7.94 8.24 10.88 5.48 8.1 5.64 7.94 5.64 7.94"/>
  </g>
  <path class="cls-2" d="m5.93,10.32v.74h-3.36L4.14,0h.36l.65,4.57.76,5.34c-.04.05-.06.12-.06.19,0,.08.03.16.08.22Z"/>
  <path class="cls-2" d="m6.44,10.32c.05-.06.08-.14.08-.22,0-.19-.15-.34-.34-.34-.12,0-.22.06-.28.15-.04.05-.06.12-.06.19,0,.08.03.16.08.22v.74h-1.7l.92-6.49.39-2.77h.31l1.31,9.26h-.71v-.74Z"/>
  <rect class="cls-2" x="2.01" y="11.15" width="5.76" height=".29"/>
  <rect class="cls-2" x="6.1" y="10.74" width=".55" height=".07" transform="translate(17.15 4.4) rotate(90)"/>
  <path class="cls-1" d="m5.81,10.31s0,.01.01.02h0s-.31.18-.31.18l.3-.2h0Z"/>
  <path class="cls-1" d="m5.76,10.23s0,.01,0,.02h0s-.33.12-.33.12l.33-.13h0Z"/>
  <path class="cls-1" d="m5.74,10.14s0,.01,0,.02h0s-.35.04-.35.04l.34-.06h0Z"/>
  <path class="cls-1" d="m5.73,10.05h0s0,.01,0,.01h0s0,0,0,0l-.34-.03h.34Z"/>
  <path class="cls-1" d="m5.74,9.96h0s0,.02,0,.02h0s-.33-.1-.33-.1l.33.08Z"/>
  <path class="cls-1" d="m5.77,9.87h0s0,.02,0,.02h0s-.3-.16-.3-.16l.31.14Z"/>
  <path class="cls-1" d="m5.82,9.79h0s0,.02-.01.02h0s-.26-.22-.26-.22l.27.2Z"/>
  <path class="cls-1" d="m5.88,9.72h0s-.01.02-.01.02h0s-.21-.27-.21-.27l.22.25Z"/>
  <path class="cls-1" d="m5.96,9.66h0s-.01.01-.02.02h0s-.15-.3-.15-.3l.17.28Z"/>
  <path class="cls-1" d="m6.05,9.63h0s-.01.01-.02.02h0s-.09-.32-.09-.32l.11.31Z"/>
  <path class="cls-1" d="m6.15,9.61h0s-.01.01-.02.01h0s-.02-.34-.02-.34l.04.32Z"/>
  <path class="cls-1" d="m6.27,9.28l-.02.33h0s-.01,0-.02,0h0s.04-.33.04-.33Z"/>
  <path class="cls-1" d="m6.43,9.32l-.09.32h0s-.01,0-.02,0h0s.11-.32.11-.32Z"/>
  <path class="cls-1" d="m6.58,9.38l-.15.29h0s-.01,0-.02,0h0s.17-.29.17-.29Z"/>
  <path class="cls-1" d="m6.71,9.47l-.21.26h0s0,0-.01,0h0s.22-.25.22-.25Z"/>
  <path class="cls-1" d="m6.82,9.59l-.26.21h0s0,0-.01,0h0s.27-.2.27-.2Z"/>
  <path class="cls-1" d="m6.91,9.73l-.3.16h0s0,0,0-.01h0s.31-.14.31-.14Z"/>
  <path class="cls-1" d="m6.97,9.88l-.33.1h0s0-.01,0-.02h0s.33-.08.33-.08Z"/>
  <path class="cls-1" d="m6.99,10.04l-.34.03h0s0,0,0,0c0,0,0-.01,0-.01h.35Z"/>
  <path class="cls-1" d="m6.98,10.21l-.35-.04h0s0-.01,0-.02h0s.34.06.34.06Z"/>
  <path class="cls-1" d="m6.94,10.36l-.33-.11h0s0-.02,0-.02h0s.33.13.33.13Z"/>
  <path class="cls-1" d="m6.87,10.51l-.31-.18h0s0-.02.01-.02h0s.3.2.3.2Z"/>
  <path class="cls-1" d="m6.65,10.05s0-.05,0-.07c0,0,0-.01,0-.02,0-.02-.01-.05-.02-.07,0,0,0-.01,0-.02-.01-.02-.02-.04-.04-.07,0,0,0-.01-.01-.02-.01-.02-.03-.04-.05-.06,0,0,0,0-.01-.01-.02-.02-.04-.03-.06-.05,0,0-.01,0-.02-.01-.02-.01-.05-.02-.07-.03,0,0-.01,0-.02,0-.02,0-.05-.01-.08-.01,0,0-.01,0-.02,0-.01,0-.03,0-.04,0-.01,0-.03,0-.04,0,0,0-.01,0-.02,0-.03,0-.05,0-.08.01,0,0-.01,0-.02,0-.03,0-.05.02-.07.03,0,0-.01,0-.02.01-.02.01-.04.03-.06.05,0,0,0,0,0,0,0,0,0,0,0,0-.02.02-.04.04-.05.06,0,0,0,.01-.01.02-.01.02-.03.04-.04.07,0,0,0,.01,0,.02,0,.02-.02.05-.02.07,0,0,0,.01,0,.02,0,.02,0,.05,0,.07v.02s0,.05,0,.07c0,0,0,.01,0,.02,0,.02.01.05.02.07,0,0,0,.01,0,.02,0,.02.02.04.03.06,0,0,0,.01.01.02,0,.01.02.03.03.04v.69h0v-.69h0s-.02-.03-.03-.04c0,0,0-.01-.01-.02-.01-.02-.02-.04-.03-.06,0,0,0-.01,0-.02,0-.02-.02-.04-.02-.07,0,0,0-.01,0-.02,0-.02,0-.05,0-.07v-.02s0-.05,0-.07c0,0,0-.01,0-.02,0-.02.01-.05.02-.07,0,0,0-.01,0-.02.01-.02.02-.04.04-.06,0,0,0-.01.01-.02.01-.02.03-.04.05-.05h0s0,0,0,0c0,0,0,0,0,0,.02-.02.04-.03.06-.04,0,0,.01,0,.02-.01.02-.01.04-.02.07-.03,0,0,.01,0,.02,0,.02,0,.05-.01.07-.01,0,0,.01,0,.02,0,.01,0,.02,0,.04,0,.01,0,.03,0,.04,0,0,0,.01,0,.02,0,.03,0,.05,0,.07.01,0,0,.01,0,.02,0,.02,0,.05.02.07.03,0,0,.01,0,.02.01.02.01.04.03.06.04,0,0,.01,0,.01.01.02.02.04.03.05.05,0,0,0,.01.01.02.01.02.03.04.04.06,0,0,0,.01,0,.02.01.02.02.04.02.07,0,0,0,.01,0,.02,0,.02,0,.05,0,.07,0,0,0,.01,0,.02h0s0,.05,0,.08c0,0,0,.01,0,.02,0,.02-.01.04-.02.07,0,0,0,.01,0,.02-.01.02-.02.04-.03.06,0,0,0,.01-.01.02-.01.01-.02.03-.03.04h0v.69h.01v-.69s.02-.03.03-.04c0,0,0-.01.01-.02.01-.02.02-.04.03-.06,0,0,0-.01,0-.02,0-.02.02-.05.02-.07,0,0,0-.01,0-.02,0-.02,0-.05,0-.07h0s0-.01,0-.02Z"/>
</svg>